<?xml version="1.0" encoding="UTF-8" standalone="no"?>
<!DOCTYPE svg PUBLIC "-//W3C//DTD SVG 1.1//EN" "http://www.w3.org/Graphics/SVG/1.1/DTD/svg11.dtd">
<svg width="100%" height="100%" viewBox="0 0 1280 1280" version="1.1" xmlns="http://www.w3.org/2000/svg" xmlns:xlink="http://www.w3.org/1999/xlink" xml:space="preserve" xmlns:serif="http://www.serif.com/" style="fill-rule:evenodd;clip-rule:evenodd;stroke-linecap:round;stroke-linejoin:round;stroke-miterlimit:1.5;">
    <g id="Layer2">
        <g>
            <g transform="matrix(1.101669,0,0,1.099572,-76.357098,-65.537172)">
                <path d="M518.743,424.689L556.988,402.839L556.988,609.538C633.776,533.491 664.599,475.393 695.6,402.606C729.233,323.637 736.397,226.979 733.881,164.02L772.638,186.567C772.874,240.007 766.912,293.51 753.715,345.033C743.649,384.332 729.927,429.118 695.758,490.822C677.966,522.952 656.839,554.646 632.042,584.39L838.006,584.612C787.298,638.163 754.919,692.784 736.236,734.285C703.547,806.899 689.557,879.813 685.924,919.908C681.158,972.512 682.414,1020.412 691.039,1069.105L662.185,1119.275C648.724,1057.339 641.026,994.287 646.979,927.569C651.377,878.287 660.685,829.409 677.429,781.498C687.111,753.792 697.652,725.849 711.822,698.709L557.1,698.702L557.1,995.028L518.813,972.911L518.727,698.852L462.488,698.782C482.801,687.009 501.142,674.301 518.743,660.948L518.743,424.689ZM597.948,622.326C584.802,635.473 570.902,648.263 556.657,660.89L732.672,660.764C740.406,647.614 749.121,634.616 758.031,622.264L597.948,622.326Z"/>
            </g>
            <g transform="matrix(1.352147,0,0,1.352147,-406.317901,-124.386015)">
                <circle cx="773.08" cy="565.313" r="425.387" style="fill:none;stroke:black;stroke-width:43.14px;"/>
            </g>
        </g>
    </g>
</svg>
